:SAMPLES-PER-SECOND 30
:FRAME-RANGE 1-3535
:FULLY-SPECIFIED
:DEGREES
2873
root  -11.4085 39.358 -60.651 -4.25781 -15.8834 2.45666
RightUpLeg  -9.26512 -11.0425 -10.7829
RightLeg  53.9781 -4.9615 -7.677
RightFoot  -2.98683 -1.23408 16.51
RightToes  1.22775e-009 1.2921e-014 -6.02303e-014
Spine  10.924 1.02284 -4.52666
Spine1  -2.58465 0.672251 -3.06332
HEad  -5.40271 20.3724 -7.76885
LeftShoulder1  1.31151 0.106446 -32.5469
LeftArm  24.7752 8.7446 -32.35
LeftForeArm  -0.862421 -15.3183 -11.8984
LeftHand  0.381695 -3.32975 -4.84627
RightShoulder  7.18049 9.60548 47.9788
RightArm  16.6822 -1.75305 17.8912
RightForeArm  18.2833 4.56274 16.166
RightHand  0.686821 6.60554 6.27713
LeftUpLeg  -9.19037 11.1412 -3.8716
LeftLeg  16.7313 13.1062 -0.22699
LeftFoot  -3.23992 -0.402137 5.94949
LeftToes  2.52163e-011 5.65494e-011 -1.09494e-012
2874
root  -11.6442 39.4808 -60.0776 -4.03577 -14.4196 2.12474
RightUpLeg  -11.8356 -11.027 -9.95841
RightLeg  52.4853 -5.59385 -8.13322
RightFoot  -3.20701 -1.1676 16.0145
RightToes  1.22775e-009 1.2921e-014 -6.02303e-014
Spine  10.8388 0.778853 -5.00997
Spine1  -2.76651 0.356063 -2.67231
HEad  -4.43055 20.1242 -6.70448
LeftShoulder1  1.32307 0.0483622 -32.2339
LeftArm  26.5684 7.80893 -32.5141
LeftForeArm  -2.27437 -17.1183 -10.3303
LeftHand  0.416041 -3.76949 -5.01623
RightShoulder  7.09747 9.44428 48.0158
RightArm  18.4283 -1.73375 18.3637
RightForeArm  14.6375 7.33007 15.2717
RightHand  0.635247 6.42606 5.87852
LeftUpLeg  -7.49838 9.02746 -3.25565
LeftLeg  15.0963 13.9911 -0.888485
LeftFoot  -3.55465 -0.375546 5.82847
LeftToes  2.52163e-011 5.65494e-011 -1.09494e-012
2875
root  -11.877 39.62 -59.5256 -3.79089 -13.0211 1.6625
RightUpLeg  -13.6431 -11.0459 -9.13539
RightLeg  48.5657 -7.1899 -8.96522
RightFoot  -3.10003 -1.13771 15.4106
RightToes  1.22775e-009 1.2921e-014 -6.02303e-014
Spine  10.7754 0.521994 -5.10624
Spine1  -2.93859 0.113552 -2.39654
HEad  -3.90961 19.6575 -5.76763
LeftShoulder1  1.32419 0.0317106 -32.0828
LeftArm  27.9894 6.66949 -32.5055
LeftForeArm  -3.77545 -18.6647 -8.88936
LeftHand  0.403817 -3.73361 -4.8832
RightShoulder  7.04299 9.32489 48.0921
RightArm  20.3493 -1.55291 18.7233
RightForeArm  10.8727 9.8937 14.1953
RightHand  0.578501 6.27602 5.40069
LeftUpLeg  -5.85047 8.35727 -2.54401
LeftLeg  13.46 13.0266 -1.6237
LeftFoot  -3.78581 -0.334866 5.41358
LeftToes  2.52163e-011 5.65494e-011 -1.09494e-012
2876
root  -12.1213 39.7555 -58.9865 -3.52051 -11.4758 1.27585
RightUpLeg  -14.5851 -11.3107 -8.57821
RightLeg  42.4501 -9.14465 -9.12587
RightFoot  -2.98316 -1.16073 15.5173
RightToes  1.22775e-009 1.2921e-014 -6.02303e-014
Spine  10.6716 0.251584 -5.20053
Spine1  -3.10347 -0.128776 -2.01955
HEad  -3.74742 18.9883 -5.08259
LeftShoulder1  1.33899 -0.012742 -32.0222
LeftArm  28.2729 5.55393 -32.4236
LeftForeArm  -4.46308 -19.7454 -7.82816
LeftHand  0.375463 -3.69468 -4.54494
RightShoulder  7.05948 9.32344 48.2114
RightArm  22.7023 -1.39945 18.9425
RightForeArm  7.494 12.2028 13.001
RightHand  0.546301 6.23219 5.10336
LeftUpLeg  -4.32714 8.41477 -1.95953
LeftLeg  11.8654 11.1685 -2.20118
LeftFoot  -3.87185 -0.29952 4.94363
LeftToes  2.52163e-011 5.65494e-011 -1.09494e-012
2877
root  -12.3654 39.867 -58.4569 -3.16394 -10.0217 0.926401
RightUpLeg  -14.8524 -11.7894 -8.10313
RightLeg  34.4758 -11.0498 -8.2902
RightFoot  -2.24257 -1.2329 15.2183
RightToes  1.22775e-009 1.2921e-014 -6.02303e-014
Spine  10.4822 0.0132291 -4.98158
Spine1  -3.22024 -0.262329 -1.87557
HEad  -3.9969 18.1144 -4.4925
LeftShoulder1  1.34661 -0.0352931 -31.9951
LeftArm  28.0003 4.50306 -32.2644
LeftForeArm  -4.83348 -20.5409 -7.06489
LeftHand  0.343983 -3.62911 -4.1778
RightShoulder  7.1059 9.38841 48.2841
RightArm  24.5394 -1.147 19.0984
RightForeArm  5.62979 13.7628 12.028
RightHand  0.515548 6.22063 4.80293
LeftUpLeg  -3.03043 8.56472 -1.38847
LeftLeg  10.4047 9.61638 -2.65485
LeftFoot  -3.95201 -0.277328 4.66177
LeftToes  2.52163e-011 5.65494e-011 -1.09494e-012
2878
root  -12.6214 39.9412 -57.9397 -2.73303 -8.53665 0.794291
RightUpLeg  -14.59 -12.816 -7.8331
RightLeg  25.3105 -12.2735 -6.46413
RightFoot  -1.3148 -1.33345 15.0183
RightToes  1.22775e-009 1.2921e-014 -6.02303e-014
Spine  10.2419 -0.171223 -4.82594
Spine1  -3.30207 -0.344011 -1.80046
HEad  -4.67365 17.2695 -4.02692
LeftShoulder1  1.35912 -0.0656688 -32.0222
LeftArm  27.9362 3.64919 -32.0115
LeftForeArm  -5.34789 -21.3442 -6.38495
LeftHand  0.325462 -3.66195 -3.92273
RightShoulder  7.1445 9.4661 48.2549
RightArm  25.5668 -0.883939 19.219
RightForeArm  4.85021 14.6383 11.4093
RightHand  0.514145 6.28568 4.75862
LeftUpLeg  -2.0966 8.40095 -1.08046
LeftLeg  9.34838 8.15045 -2.79451
LeftFoot  -4.0648 -0.25313 4.36487
LeftToes  2.52163e-011 5.65494e-011 -1.09494e-012
2879
root  -12.8991 39.9824 -57.4252 -2.28918 -6.9071 0.868594
RightUpLeg  -13.9481 -14.2665 -7.73006
RightLeg  15.7629 -11.5299 -3.85058
RightFoot  0.351389 -1.47607 14.3696
RightToes  1.22775e-009 1.2921e-014 -6.02303e-014
Spine  10.0303 -0.323993 -4.77663
Spine1  -3.33937 -0.425573 -1.68488
HEad  -5.65976 16.3344 -3.64319
LeftShoulder1  1.37292 -0.099159 -32.0517
LeftArm  27.7003 2.95963 -31.6708
LeftForeArm  -5.38447 -21.9203 -5.9503
LeftHand  0.31117 -3.78726 -3.67928
RightShoulder  7.164 9.51691 48.1969
RightArm  26.3494 -0.772243 19.1953
RightForeArm  4.12123 15.2143 11.0052
RightHand  0.524812 6.31102 4.8523
LeftUpLeg  -1.46717 8.39751 -0.7865
LeftLeg  8.78576 6.49538 -3.12366
LeftFoot  -4.54747 -0.202879 3.87886
LeftToes  2.52163e-011 5.65494e-011 -1.09494e-012
2880
root  -13.1983 39.9822 -56.9008 -1.97913 -5.39349 1.23081
RightUpLeg  -12.9904 -12.0599 -8.99032
RightLeg  7.61958 -13.208 -0.797434
RightFoot  1.95154 -1.58125 13.626
RightToes  1.22775e-009 1.2921e-014 -6.02303e-014
Spine  10.0887 -0.346366 -4.66999
Spine1  -3.51653 -0.349744 -1.91799
HEad  -6.78544 15.2818 -3.36699
LeftShoulder1  1.38002 -0.110529 -32.1286
LeftArm  27.5216 2.41904 -31.3003
LeftForeArm  -5.14749 -22.2191 -5.74534
LeftHand  0.290756 -3.78053 -3.42403
RightShoulder  7.14646 9.46671 48.266
RightArm  25.4878 -0.642285 18.9986
RightForeArm  4.76959 14.8554 11.2345
RightHand  0.536119 6.34375 4.94833
LeftUpLeg  -0.949652 8.23908 -0.794604
LeftLeg  8.68378 5.26631 -3.21443
LeftFoot  -5.07671 -0.164468 3.56394
LeftToes  2.52163e-011 5.65494e-011 -1.09494e-012
2881
root  -13.5232 39.9535 -56.3255 -1.96912 -4.15927 1.64764
RightUpLeg  -11.9597 -10.4375 -10.0297
RightLeg  1.74931 -13.3172 1.6653
RightFoot  2.64274 -1.57269 12.921
RightToes  1.22775e-009 1.2921e-014 -6.02303e-014
Spine  10.0219 -0.248117 -4.31119
Spine1  -3.22653 -0.122609 -2.37298
HEad  -7.66994 14.409 -3.55166
LeftShoulder1  1.39662 -0.123526 -32.4492
LeftArm  27.5504 2.03156 -30.7287
LeftForeArm  -5.22676 -22.2543 -5.73178
LeftHand  0.293273 -3.95472 -3.37913
RightShoulder  7.2284 9.61772 48.2566
RightArm  23.3127 -0.534385 18.7686
RightForeArm  6.64398 13.5643 12.0696
RightHand  0.526029 6.37704 4.83335
LeftUpLeg  -0.115274 8.14457 -0.742288
LeftLeg  8.84121 4.06037 -3.19386
LeftFoot  -5.97838 -0.0983347 2.8684
LeftToes  2.52163e-011 5.65494e-011 -1.09494e-012
2882
root  -13.8898 39.9008 -55.6817 -2.1521 -3.18784 2.03097
RightUpLeg  -11.1827 -10.1437 -10.2427
RightLeg  -1.08994 -13.5471 2.54675
RightFoot  3.83161 -1.60149 12.1801
RightToes  1.22775e-009 1.2921e-014 -6.02303e-014
Spine  9.80233 -0.0983297 -3.86406
Spine1  -2.83805 0.14256 -2.80587
HEad  -7.74719 13.9322 -3.97234
LeftShoulder1  1.39548 -0.110222 -32.5591
LeftArm  26.9835 2.2547 -30.413
LeftForeArm  -4.97096 -21.5335 -6.20827
LeftHand  0.283555 -4.03489 -3.22507
RightShoulder  7.42859 9.975 48.2767
RightArm  20.0358 -0.499283 18.4372
RightForeArm  9.7237 11.2977 13.3565
RightHand  0.511827 6.27746 4.73948
LeftUpLeg  0.963209 8.2281 -0.481793
LeftLeg  9.23755 2.88614 -3.17333
LeftFoot  -7.06579 -0.0393064 2.19248
LeftToes  2.52163e-011 5.65494e-011 -1.09494e-012
2883
root  -14.2958 39.8451 -54.9704 -2.31763 -2.29379 2.38542
RightUpLeg  -10.5317 -9.76329 -10.0214
RightLeg  -1.22157 -14.2846 2.30886
RightFoot  4.69194 -1.4829 10.7295
RightToes  1.22775e-009 1.2921e-014 -6.02303e-014
Spine  9.31832 0.063948 -3.58183
Spine1  -2.50298 0.30839 -2.80069
HEad  -7.10132 13.8599 -4.28464
LeftShoulder1  1.37648 -0.0629599 -32.5373
LeftArm  26.0876 3.14033 -30.2304
LeftForeArm  -4.27925 -20.3013 -7.23366
LeftHand  0.248632 -3.80353 -2.88173
RightShoulder  7.52751 10.1551 48.2734
RightArm  14.8363 -0.181629 18.061
RightForeArm  15.1561 7.49738 14.8788
RightHand  0.532535 6.39127 4.89056
LeftUpLeg  2.18708 8.13875 -0.222652
LeftLeg  9.48635 1.894 -2.89772
LeftFoot  -8.16135 0.0125494 1.31638
LeftToes  2.52163e-011 5.65494e-011 -1.09494e-012
2884
root  -14.7315 39.8041 -54.1966 -2.55151 -1.65134 2.61737
RightUpLeg  -9.86246 -9.50816 -9.45365
RightLeg  0.558703 -14.9751 1.81613
RightFoot  6.19362 -1.36406 9.10312
RightToes  1.22775e-009 1.2921e-014 -6.02303e-014
Spine  8.88652 0.255981 -3.0321
Spine1  -2.37836 0.475064 -2.66922
HEad  -6.0853 14.0442 -4.31193
LeftShoulder1  1.34102 0.0254254 -32.4972
LeftArm  25.1742 4.53581 -29.8142
LeftForeArm  -3.46306 -18.8323 -8.626
LeftHand  0.252249 -3.63048 -2.99624
RightShoulder  7.4643 9.99184 48.4495
RightArm  11.5555 -0.165435 17.5148
RightForeArm  18.5846 4.74495 15.6209
RightHand  0.586158 6.39578 5.4142
LeftUpLeg  3.90434 8.30533 0.425941
LeftLeg  9.18867 0.631605 -2.87444
LeftFoot  -9.09881 0.0453997 0.474251
LeftToes  2.52163e-011 5.65494e-011 -1.09494e-012
2885
root  -15.1777 39.8455 -53.4143 -2.66223 -1.11014 2.32714
RightUpLeg  -9.9259 -9.05789 -8.27334
RightLeg  3.32836 -14.771 0.961318
RightFoot  7.75326 -0.466504 3.08932
RightToes  1.22775e-009 1.2921e-014 -6.02303e-014
Spine  8.64177 0.398807 -1.52121
Spine1  -2.34205 0.604482 -2.27364
HEad  -5.26788 14.3396 -4.17968
LeftShoulder1  1.29278 0.160208 -32.6064
LeftArm  24.6959 5.97962 -28.9486
LeftForeArm  -2.77596 -17.2282 -10.2009
LeftHand  0.259632 -3.47407 -3.15752
RightShoulder  7.2348 9.50754 48.7121
RightArm  9.53547 -0.312905 17.0213
RightForeArm  20.3877 2.78058 16.0137
RightHand  0.611494 6.36393 5.67967
LeftUpLeg  5.9563 8.28715 1.53212
LeftLeg  7.88717 -0.23149 -2.55159
LeftFoot  -9.52257 0.0673487 -0.640257
LeftToes  2.52163e-011 5.65494e-011 -1.09494e-012
2886
root  -15.6584 39.8113 -52.6301 -2.95825 -0.968201 1.67072
RightUpLeg  -10.1706 -9.21965 -6.93285
RightLeg  7.17535 -14.64 -0.248198
RightFoot  5.5068 -0.374503 2.78258
RightToes  1.22775e-009 1.2921e-014 -6.02303e-014
Spine  8.86208 0.414758 0.458879
Spine1  -2.62297 0.814415 -2.64786
HEad  -5.20955 15.1566 -4.43
LeftShoulder1  1.23934 0.349497 -33.226
LeftArm  23.4954 7.47795 -27.5825
LeftForeArm  -1.49421 -15.3685 -11.8748
LeftHand  0.289104 -3.32147 -3.61746
RightShoulder  7.12004 9.16815 49.2262
RightArm  8.35576 -0.351625 16.3908
RightForeArm  20.9449 1.21084 16.3406
RightHand  0.591338 6.29987 5.5152
LeftUpLeg  7.58431 8.48409 3.04001
LeftLeg  7.91984 -1.04764 -1.95098
LeftFoot  -10.5667 0.0757124 -1.82136
LeftToes  2.52163e-011 5.65494e-011 -1.09494e-012
